# xmcd
#
# Track frame offsets: 
#        150
#        21516
#        37785
#        54146
#        76461
#        97226
#        116464
#        132903
#        152257
#        165996
#        186679
#        203175
#        221802
#
# Disc length: 3204 seconds
#
# Revision: 7
# Processed by: cddbd v1.5.2PL0 Copyright (c) Steve Scherf et al.
# Submitted via: ExactAudioCopyFreeDBPlugin 1.0
#
DISCID=ac0c820d
DTITLE=Russell, Calvin - Rebel Radio
DYEAR=2001
DGENRE=Roots-Rock
TTITLE0=Shadow of doubt
TTITLE1=It is what it is
TTITLE2=Barroom girls
TTITLE3=No expectations
TTITLE4=Country boy
TTITLE5=Freight train blues
TTITLE6=Pass you by
TTITLE7=Still lookin' for you
TTITLE8=Wild roses
TTITLE9=I never cared for you
TTITLE10=Ain't leavin' your love
TTITLE11=I'll be here in the morning
TTITLE12=Nothin' is
EXTD=Musicians:\n\nRiley Osbourn - keyboard\nRichard Bowden - violin\n
EXTD=Gabe Rhodes - guitar, pump organ\nT. Stephen Bruton - guitar, bac
EXTD=kground vocals\nLloyd Maines - dobro\nJohn Blondell - bass\nFredd
EXTD=ie Krc - drumsnKimmie Rhodes - background vocals\n\nProduced by J
EXTD=oe Gracey\nExecutive Producer: Freddy Fletcher and Pedernales Recor
EXTD=ds\nRecorded at Pedernales Studios, Austin, TX\nEngineer: Boo Mac
EXTD=Leod
EXTT0=(Gary Nicholson)
EXTT1=(Stephan Bruton, John Fleming)
EXTT2=(Gillian Welch, David Rawlings)
EXTT3=(Mick Jagger, Keith Richards)
EXTT4=(Calvin Russel)
EXTT5=
EXTT6=(Calvin Russel)
EXTT7=(Gillian Welch, David Rawlings)t
EXTT8=(Townes Van Zandt)
EXTT9=(Kimmie Rhodes)
EXTT10=(Willie Nelson)
EXTT11=(Townes Van Zandt)
EXTT12=(Calvin Russel)
PLAYORDER=
